# xmcd
#
# Track frame offsets:
#	150
#	13585
#	21956
#	42527
#	53815
#	68659
#	87520
#	96015
#	107270
#	123150
#	139937
#	173583
#	186013
#	215520
#	239435
#	257079
#	274697
#
# Disc length: 4118 seconds
#
# Revision: 1
# Processed by: cddbd v1.5.2PL0 Copyright (c) Steve Scherf et al.
# Submitted via: EZCDAudioConverter 1.3.4.1
#
DISCID=e7101411
DTITLE=John Martyn - Sunday's Child
DYEAR=1974
DGENRE=
TTITLE0=One Day Without You
TTITLE1=Lay It All Down
TTITLE2=Root Love
TTITLE3=My Baby Girl
TTITLE4=Sunday's Child
TTITLE5=Spencer The Rover
TTITLE6=Clutches
TTITLE7=The Message
TTITLE8=Satisfied Mind
TTITLE9=You Can Discover
TTITLE10=Call Me Crazy
TTITLE11=Eight More Miles [Alternate Take]
TTITLE12=Sunday's Child [Alternate Take]
TTITLE13=Root Love [Instrumental]
TTITLE14=Ellie Rhee [Alternate Take]
TTITLE15=Spencer The Rover [BBC Sight And Sound 'In Concert']
TTITLE16=Anni (Part 1 and 2) [John Stevens' Away Featuring John Martyn]
EXTD=
EXTT0=
EXTT1=
EXTT2=
EXTT3=
EXTT4=
EXTT5=
EXTT6=
EXTT7=
EXTT8=
EXTT9=
EXTT10=
EXTT11=
EXTT12=
EXTT13=
EXTT14=
EXTT15=
EXTT16=
PLAYORDER=
